<?xml version="1.0" encoding="UTF-8" standalone="no"?>
<!DOCTYPE svg PUBLIC "-//W3C//DTD SVG 1.1//EN"
 "http://www.w3.org/Graphics/SVG/1.1/DTD/svg11.dtd">
<!-- Generated by graphviz version 2.43.0 (0)
 -->
<!-- Title: G Pages: 1 -->
<svg width="772pt" height="1582pt"
 viewBox="0.00 0.00 772.37 1582.00" xmlns="http://www.w3.org/2000/svg" xmlns:xlink="http://www.w3.org/1999/xlink">
<g id="graph0" class="graph" transform="scale(1 1) rotate(0) translate(4 1578)">
<title>G</title>
<polygon fill="white" stroke="transparent" points="-4,4 -4,-1578 768.37,-1578 768.37,4 -4,4"/>
<g id="clust1" class="cluster">
<title>cluster_n0x55e42f6e4f00</title>
</g>
<g id="clust2" class="cluster">
<title>cluster_n0x55e42f6e7570</title>
</g>
<g id="clust3" class="cluster">
<title>cluster_n0x55e42f6e7cb0</title>
</g>
<g id="clust4" class="cluster">
<title>cluster_n0x55e42f6e7d90</title>
</g>
<g id="clust5" class="cluster">
<title>cluster_n0x55e42f6e7b10</title>
</g>
<g id="clust6" class="cluster">
<title>cluster_n0x55e42f6e7940</title>
</g>
<g id="clust7" class="cluster">
<title>cluster_n0x55e42f6e7760</title>
</g>
<g id="clust8" class="cluster">
<title>cluster_n0x55e42f6e75a0</title>
</g>
<g id="clust9" class="cluster">
<title>cluster_n0x55e42f6e7370</title>
</g>
<!-- n0x55e42f6e4f00 -->
<g id="node1" class="node">
<title>n0x55e42f6e4f00</title>
<ellipse fill="none" stroke="black" cx="47.2" cy="-445" rx="31.4" ry="18"/>
<text text-anchor="middle" x="47.2" y="-441.3" font-family="Times,serif" font-size="14.00">{...}</text>
</g>
<!-- n0x55e42f6e7270 -->
<g id="node2" class="node">
<title>n0x55e42f6e7270</title>
<ellipse fill="none" stroke="black" cx="234.64" cy="-34" rx="34.39" ry="18"/>
<text text-anchor="middle" x="234.64" y="-30.3" font-family="Times,serif" font-size="14.00">&quot;M1&quot;</text>
</g>
<!-- n0x55e42f6e4f00&#45;&gt;n0x55e42f6e7270 -->
<g id="edge1" class="edge">
<title>n0x55e42f6e4f00&#45;&gt;n0x55e42f6e7270</title>
<path fill="none" stroke="black" d="M48.5,-426.8C49.85,-382.64 57.17,-267.06 96.39,-181 124.72,-118.85 141.86,-106.94 192.39,-61 195.53,-58.15 198.99,-55.39 202.54,-52.8"/>
<polygon fill="black" stroke="black" points="204.61,-55.63 210.87,-47.08 200.64,-49.86 204.61,-55.63"/>
<text text-anchor="middle" x="135.39" y="-184.8" font-family="Times,serif" font-size="14.00">level</text>
</g>
<!-- n0x55e42f6e7300 -->
<g id="node3" class="node">
<title>n0x55e42f6e7300</title>
<ellipse fill="none" stroke="black" cx="234.64" cy="-88" rx="27" ry="18"/>
<text text-anchor="middle" x="234.64" y="-84.3" font-family="Times,serif" font-size="14.00">1</text>
</g>
<!-- n0x55e42f6e4f00&#45;&gt;n0x55e42f6e7300 -->
<g id="edge2" class="edge">
<title>n0x55e42f6e4f00&#45;&gt;n0x55e42f6e7300</title>
<path fill="none" stroke="black" d="M50.28,-426.85C55.8,-381.47 72.07,-264.64 96.39,-235 120.5,-205.63 150.54,-229.57 174.39,-200 198.64,-169.95 170.59,-146.87 192.39,-115 195.34,-110.7 199.22,-106.91 203.42,-103.64"/>
<polygon fill="black" stroke="black" points="205.44,-106.5 211.74,-97.99 201.5,-100.71 205.44,-106.5"/>
<text text-anchor="middle" x="135.39" y="-238.8" font-family="Times,serif" font-size="14.00">mandatory</text>
</g>
<!-- n0x55e42f6e71e0 -->
<g id="node4" class="node">
<title>n0x55e42f6e71e0</title>
<ellipse fill="none" stroke="black" cx="234.64" cy="-142" rx="42.49" ry="18"/>
<text text-anchor="middle" x="234.64" y="-138.3" font-family="Times,serif" font-size="14.00">&quot;C++&quot;</text>
</g>
<!-- n0x55e42f6e4f00&#45;&gt;n0x55e42f6e71e0 -->
<g id="edge3" class="edge">
<title>n0x55e42f6e4f00&#45;&gt;n0x55e42f6e71e0</title>
<path fill="none" stroke="black" d="M62.06,-428.88C88.29,-397.47 145.19,-324.93 174.39,-254 189.93,-216.28 168.06,-196.74 192.39,-164 193.3,-162.78 194.3,-161.62 195.36,-160.52"/>
<polygon fill="black" stroke="black" points="197.72,-163.11 203.24,-154.07 193.28,-157.7 197.72,-163.11"/>
<text text-anchor="middle" x="135.39" y="-387.8" font-family="Times,serif" font-size="14.00">name</text>
</g>
<!-- n0x55e42f6e7570 -->
<g id="node5" class="node">
<title>n0x55e42f6e7570</title>
<ellipse fill="none" stroke="black" cx="234.64" cy="-838" rx="27" ry="18"/>
<text text-anchor="middle" x="234.64" y="-834.3" font-family="Times,serif" font-size="14.00">[...]</text>
</g>
<!-- n0x55e42f6e4f00&#45;&gt;n0x55e42f6e7570 -->
<g id="edge31" class="edge">
<title>n0x55e42f6e4f00&#45;&gt;n0x55e42f6e7570</title>
<path fill="none" stroke="black" d="M50.7,-463.16C59.59,-521.32 94.47,-705.64 192.39,-816 195.1,-819.05 198.34,-821.76 201.8,-824.13"/>
<polygon fill="black" stroke="black" points="200.26,-827.29 210.65,-829.36 203.82,-821.26 200.26,-827.29"/>
<text text-anchor="middle" x="135.39" y="-794.8" font-family="Times,serif" font-size="14.00">sessions</text>
</g>
<!-- n0x55e42f6e7370 -->
<g id="node33" class="node">
<title>n0x55e42f6e7370</title>
<ellipse fill="none" stroke="black" cx="234.64" cy="-1407" rx="27" ry="18"/>
<text text-anchor="middle" x="234.64" y="-1403.3" font-family="Times,serif" font-size="14.00">[...]</text>
</g>
<!-- n0x55e42f6e4f00&#45;&gt;n0x55e42f6e7370 -->
<g id="edge35" class="edge">
<title>n0x55e42f6e4f00&#45;&gt;n0x55e42f6e7370</title>
<path fill="none" stroke="black" d="M50.32,-463.27C56.58,-516.72 75.86,-677.35 96.39,-810 133.69,-1050.89 97.21,-1125.59 192.39,-1350 197.49,-1362 205.5,-1373.9 213.12,-1383.7"/>
<polygon fill="black" stroke="black" points="210.61,-1386.16 219.63,-1391.72 216.04,-1381.75 210.61,-1386.16"/>
<text text-anchor="middle" x="135.39" y="-1301.8" font-family="Times,serif" font-size="14.00">teachers</text>
</g>
<!-- n0x55e42f6e7440 -->
<g id="node37" class="node">
<title>n0x55e42f6e7440</title>
<ellipse fill="none" stroke="black" cx="234.64" cy="-1540" rx="34.39" ry="18"/>
<text text-anchor="middle" x="234.64" y="-1536.3" font-family="Times,serif" font-size="14.00">2022</text>
</g>
<!-- n0x55e42f6e4f00&#45;&gt;n0x55e42f6e7440 -->
<g id="edge36" class="edge">
<title>n0x55e42f6e4f00&#45;&gt;n0x55e42f6e7440</title>
<path fill="none" stroke="black" d="M48.24,-463.11C48.67,-572.62 52.95,-1147.16 96.39,-1317 120.93,-1412.91 123.96,-1446.46 192.39,-1518 194.21,-1519.9 196.23,-1521.67 198.36,-1523.31"/>
<polygon fill="black" stroke="black" points="196.76,-1526.45 207.04,-1529.03 200.62,-1520.6 196.76,-1526.45"/>
<text text-anchor="middle" x="135.39" y="-1500.8" font-family="Times,serif" font-size="14.00">year</text>
</g>
<!-- n0x55e42f6e7cb0 -->
<g id="node6" class="node">
<title>n0x55e42f6e7cb0</title>
<ellipse fill="none" stroke="black" cx="374.98" cy="-443" rx="31.4" ry="18"/>
<text text-anchor="middle" x="374.98" y="-439.3" font-family="Times,serif" font-size="14.00">{...}</text>
</g>
<!-- n0x55e42f6e7570&#45;&gt;n0x55e42f6e7cb0 -->
<g id="edge14" class="edge">
<title>n0x55e42f6e7570&#45;&gt;n0x55e42f6e7cb0</title>
<path fill="none" stroke="black" d="M259.07,-829.72C265.66,-826.37 272.28,-821.88 276.89,-816 318.17,-763.3 297.1,-734.8 313.89,-670 332.54,-597.99 355.13,-513.32 366.57,-470.61"/>
<polygon fill="black" stroke="black" points="369.96,-471.5 369.16,-460.93 363.2,-469.69 369.96,-471.5"/>
</g>
<!-- n0x55e42f6e7b10 -->
<g id="node17" class="node">
<title>n0x55e42f6e7b10</title>
<ellipse fill="none" stroke="black" cx="374.98" cy="-781" rx="31.4" ry="18"/>
<text text-anchor="middle" x="374.98" y="-777.3" font-family="Times,serif" font-size="14.00">{...}</text>
</g>
<!-- n0x55e42f6e7570&#45;&gt;n0x55e42f6e7b10 -->
<g id="edge18" class="edge">
<title>n0x55e42f6e7570&#45;&gt;n0x55e42f6e7b10</title>
<path fill="none" stroke="black" d="M258.18,-828.72C280.31,-819.6 314.36,-805.56 339.82,-795.07"/>
<polygon fill="black" stroke="black" points="341.21,-798.29 349.12,-791.24 338.54,-791.82 341.21,-798.29"/>
</g>
<!-- n0x55e42f6e7940 -->
<g id="node21" class="node">
<title>n0x55e42f6e7940</title>
<ellipse fill="none" stroke="black" cx="374.98" cy="-895" rx="31.4" ry="18"/>
<text text-anchor="middle" x="374.98" y="-891.3" font-family="Times,serif" font-size="14.00">{...}</text>
</g>
<!-- n0x55e42f6e7570&#45;&gt;n0x55e42f6e7940 -->
<g id="edge22" class="edge">
<title>n0x55e42f6e7570&#45;&gt;n0x55e42f6e7940</title>
<path fill="none" stroke="black" d="M258.18,-847.28C280.31,-856.4 314.36,-870.44 339.82,-880.93"/>
<polygon fill="black" stroke="black" points="338.54,-884.18 349.12,-884.76 341.21,-877.71 338.54,-884.18"/>
</g>
<!-- n0x55e42f6e7760 -->
<g id="node25" class="node">
<title>n0x55e42f6e7760</title>
<ellipse fill="none" stroke="black" cx="374.98" cy="-1063" rx="31.4" ry="18"/>
<text text-anchor="middle" x="374.98" y="-1059.3" font-family="Times,serif" font-size="14.00">{...}</text>
</g>
<!-- n0x55e42f6e7570&#45;&gt;n0x55e42f6e7760 -->
<g id="edge26" class="edge">
<title>n0x55e42f6e7570&#45;&gt;n0x55e42f6e7760</title>
<path fill="none" stroke="black" d="M241.35,-855.6C252.24,-887.51 278.08,-956.25 313.89,-1006 323.51,-1019.37 336.56,-1032.19 348.03,-1042.27"/>
<polygon fill="black" stroke="black" points="345.79,-1044.96 355.67,-1048.79 350.33,-1039.63 345.79,-1044.96"/>
</g>
<!-- n0x55e42f6e75a0 -->
<g id="node29" class="node">
<title>n0x55e42f6e75a0</title>
<ellipse fill="none" stroke="black" cx="374.98" cy="-1231" rx="31.4" ry="18"/>
<text text-anchor="middle" x="374.98" y="-1227.3" font-family="Times,serif" font-size="14.00">{...}</text>
</g>
<!-- n0x55e42f6e7570&#45;&gt;n0x55e42f6e75a0 -->
<g id="edge30" class="edge">
<title>n0x55e42f6e7570&#45;&gt;n0x55e42f6e75a0</title>
<path fill="none" stroke="black" d="M236.26,-856.08C238.76,-908.68 251.36,-1064.87 313.89,-1174 322.02,-1188.19 334.79,-1201.03 346.47,-1210.91"/>
<polygon fill="black" stroke="black" points="344.34,-1213.68 354.31,-1217.26 348.74,-1208.24 344.34,-1213.68"/>
</g>
<!-- n0x55e42f6e7d00 -->
<g id="node7" class="node">
<title>n0x55e42f6e7d00</title>
<ellipse fill="none" stroke="black" cx="580.72" cy="-202" rx="52.79" ry="18"/>
<text text-anchor="middle" x="580.72" y="-198.3" font-family="Times,serif" font-size="14.00">&quot;Project&quot;</text>
</g>
<!-- n0x55e42f6e7cb0&#45;&gt;n0x55e42f6e7d00 -->
<g id="edge4" class="edge">
<title>n0x55e42f6e7cb0&#45;&gt;n0x55e42f6e7d00</title>
<path fill="none" stroke="black" d="M383.89,-425.46C403.05,-384.75 455.74,-282.89 528.08,-224 529.89,-222.53 531.81,-221.13 533.81,-219.82"/>
<polygon fill="black" stroke="black" points="536.02,-222.59 542.96,-214.58 532.55,-216.52 536.02,-222.59"/>
<text text-anchor="middle" x="482.08" y="-307.8" font-family="Times,serif" font-size="14.00">kind</text>
</g>
<!-- n0x55e42f6e7d90 -->
<g id="node8" class="node">
<title>n0x55e42f6e7d90</title>
<ellipse fill="none" stroke="black" cx="580.72" cy="-443" rx="27" ry="18"/>
<text text-anchor="middle" x="580.72" y="-439.3" font-family="Times,serif" font-size="14.00">[...]</text>
</g>
<!-- n0x55e42f6e7cb0&#45;&gt;n0x55e42f6e7d90 -->
<g id="edge13" class="edge">
<title>n0x55e42f6e7cb0&#45;&gt;n0x55e42f6e7d90</title>
<path fill="none" stroke="black" d="M406.48,-443C443.01,-443 504.15,-443 543.17,-443"/>
<polygon fill="black" stroke="black" points="543.55,-446.5 553.55,-443 543.55,-439.5 543.55,-446.5"/>
<text text-anchor="middle" x="482.08" y="-446.8" font-family="Times,serif" font-size="14.00">weeks</text>
</g>
<!-- n0x55e42f6e7f70 -->
<g id="node9" class="node">
<title>n0x55e42f6e7f70</title>
<ellipse fill="none" stroke="black" cx="697.37" cy="-254" rx="27" ry="18"/>
<text text-anchor="middle" x="697.37" y="-250.3" font-family="Times,serif" font-size="14.00">12</text>
</g>
<!-- n0x55e42f6e7d90&#45;&gt;n0x55e42f6e7f70 -->
<g id="edge5" class="edge">
<title>n0x55e42f6e7d90&#45;&gt;n0x55e42f6e7f70</title>
<path fill="none" stroke="black" d="M606.64,-437.42C616.21,-434.12 626.48,-428.96 633.37,-421 654.42,-396.66 654.59,-309.05 670.37,-281 671.35,-279.26 672.47,-277.54 673.68,-275.87"/>
<polygon fill="black" stroke="black" points="676.53,-277.92 680.29,-268.02 671.17,-273.42 676.53,-277.92"/>
</g>
<!-- n0x55e42f6e7f50 -->
<g id="node10" class="node">
<title>n0x55e42f6e7f50</title>
<ellipse fill="none" stroke="black" cx="697.37" cy="-308" rx="27" ry="18"/>
<text text-anchor="middle" x="697.37" y="-304.3" font-family="Times,serif" font-size="14.00">11</text>
</g>
<!-- n0x55e42f6e7d90&#45;&gt;n0x55e42f6e7f50 -->
<g id="edge6" class="edge">
<title>n0x55e42f6e7d90&#45;&gt;n0x55e42f6e7f50</title>
<path fill="none" stroke="black" d="M606.33,-436.8C615.75,-433.41 625.98,-428.36 633.37,-421 662.84,-391.63 647.34,-369.66 670.37,-335 671.47,-333.33 672.69,-331.68 673.97,-330.05"/>
<polygon fill="black" stroke="black" points="676.8,-332.14 680.75,-322.3 671.53,-327.53 676.8,-332.14"/>
</g>
<!-- n0x55e42f6e7f30 -->
<g id="node11" class="node">
<title>n0x55e42f6e7f30</title>
<ellipse fill="none" stroke="black" cx="697.37" cy="-362" rx="27" ry="18"/>
<text text-anchor="middle" x="697.37" y="-358.3" font-family="Times,serif" font-size="14.00">10</text>
</g>
<!-- n0x55e42f6e7d90&#45;&gt;n0x55e42f6e7f30 -->
<g id="edge7" class="edge">
<title>n0x55e42f6e7d90&#45;&gt;n0x55e42f6e7f30</title>
<path fill="none" stroke="black" d="M605.22,-435C614.37,-431.38 624.71,-426.64 633.37,-421 642.13,-415.29 660.08,-398.25 674.59,-383.94"/>
<polygon fill="black" stroke="black" points="677.17,-386.31 681.79,-376.78 672.23,-381.35 677.17,-386.31"/>
</g>
<!-- n0x55e42f6e7ec0 -->
<g id="node12" class="node">
<title>n0x55e42f6e7ec0</title>
<ellipse fill="none" stroke="black" cx="697.37" cy="-416" rx="27" ry="18"/>
<text text-anchor="middle" x="697.37" y="-412.3" font-family="Times,serif" font-size="14.00">9</text>
</g>
<!-- n0x55e42f6e7d90&#45;&gt;n0x55e42f6e7ec0 -->
<g id="edge8" class="edge">
<title>n0x55e42f6e7d90&#45;&gt;n0x55e42f6e7ec0</title>
<path fill="none" stroke="black" d="M606.32,-437.21C622.45,-433.41 643.79,-428.38 661.64,-424.18"/>
<polygon fill="black" stroke="black" points="662.49,-427.58 671.42,-421.88 660.88,-420.76 662.49,-427.58"/>
</g>
<!-- n0x55e42f6e7e70 -->
<g id="node13" class="node">
<title>n0x55e42f6e7e70</title>
<ellipse fill="none" stroke="black" cx="697.37" cy="-470" rx="27" ry="18"/>
<text text-anchor="middle" x="697.37" y="-466.3" font-family="Times,serif" font-size="14.00">8</text>
</g>
<!-- n0x55e42f6e7d90&#45;&gt;n0x55e42f6e7e70 -->
<g id="edge9" class="edge">
<title>n0x55e42f6e7d90&#45;&gt;n0x55e42f6e7e70</title>
<path fill="none" stroke="black" d="M606.32,-448.79C622.45,-452.59 643.79,-457.62 661.64,-461.82"/>
<polygon fill="black" stroke="black" points="660.88,-465.24 671.42,-464.12 662.49,-458.42 660.88,-465.24"/>
</g>
<!-- n0x55e42f6e7e30 -->
<g id="node14" class="node">
<title>n0x55e42f6e7e30</title>
<ellipse fill="none" stroke="black" cx="697.37" cy="-524" rx="27" ry="18"/>
<text text-anchor="middle" x="697.37" y="-520.3" font-family="Times,serif" font-size="14.00">7</text>
</g>
<!-- n0x55e42f6e7d90&#45;&gt;n0x55e42f6e7e30 -->
<g id="edge10" class="edge">
<title>n0x55e42f6e7d90&#45;&gt;n0x55e42f6e7e30</title>
<path fill="none" stroke="black" d="M599.89,-455.83C618.75,-469.17 648.46,-490.16 669.93,-505.32"/>
<polygon fill="black" stroke="black" points="668.1,-508.31 678.29,-511.23 672.14,-502.6 668.1,-508.31"/>
</g>
<!-- n0x55e42f6e7e50 -->
<g id="node15" class="node">
<title>n0x55e42f6e7e50</title>
<ellipse fill="none" stroke="black" cx="697.37" cy="-578" rx="27" ry="18"/>
<text text-anchor="middle" x="697.37" y="-574.3" font-family="Times,serif" font-size="14.00">6</text>
</g>
<!-- n0x55e42f6e7d90&#45;&gt;n0x55e42f6e7e50 -->
<g id="edge11" class="edge">
<title>n0x55e42f6e7d90&#45;&gt;n0x55e42f6e7e50</title>
<path fill="none" stroke="black" d="M593.97,-458.7C610.74,-480.01 641.99,-519.1 670.37,-551 671.7,-552.5 673.08,-554.02 674.49,-555.55"/>
<polygon fill="black" stroke="black" points="672.17,-558.19 681.58,-563.06 677.26,-553.39 672.17,-558.19"/>
</g>
<!-- n0x55e42f6e7e10 -->
<g id="node16" class="node">
<title>n0x55e42f6e7e10</title>
<ellipse fill="none" stroke="black" cx="697.37" cy="-632" rx="27" ry="18"/>
<text text-anchor="middle" x="697.37" y="-628.3" font-family="Times,serif" font-size="14.00">5</text>
</g>
<!-- n0x55e42f6e7d90&#45;&gt;n0x55e42f6e7e10 -->
<g id="edge12" class="edge">
<title>n0x55e42f6e7d90&#45;&gt;n0x55e42f6e7e10</title>
<path fill="none" stroke="black" d="M589.39,-460.45C603.27,-491.14 634.49,-556.17 670.37,-605 671.55,-606.61 672.83,-608.23 674.15,-609.82"/>
<polygon fill="black" stroke="black" points="671.76,-612.39 681.04,-617.5 676.97,-607.72 671.76,-612.39"/>
</g>
<!-- n0x55e42f6e7b60 -->
<g id="node18" class="node">
<title>n0x55e42f6e7b60</title>
<ellipse fill="none" stroke="black" cx="580.72" cy="-700" rx="31.7" ry="18"/>
<text text-anchor="middle" x="580.72" y="-696.3" font-family="Times,serif" font-size="14.00">&quot;TP&quot;</text>
</g>
<!-- n0x55e42f6e7b10&#45;&gt;n0x55e42f6e7b60 -->
<g id="edge15" class="edge">
<title>n0x55e42f6e7b10&#45;&gt;n0x55e42f6e7b60</title>
<path fill="none" stroke="black" d="M397.76,-768.67C413.18,-760.23 434.53,-749.14 454.08,-741 482.94,-728.99 516.66,-718.15 541.9,-710.64"/>
<polygon fill="black" stroke="black" points="543.2,-713.9 551.81,-707.73 541.23,-707.19 543.2,-713.9"/>
<text text-anchor="middle" x="482.08" y="-744.8" font-family="Times,serif" font-size="14.00">kind</text>
</g>
<!-- n0x55e42f6e7920 -->
<g id="node19" class="node">
<title>n0x55e42f6e7920</title>
<ellipse fill="none" stroke="black" cx="580.72" cy="-754" rx="27" ry="18"/>
<text text-anchor="middle" x="580.72" y="-750.3" font-family="Times,serif" font-size="14.00">4</text>
</g>
<!-- n0x55e42f6e7b10&#45;&gt;n0x55e42f6e7920 -->
<g id="edge16" class="edge">
<title>n0x55e42f6e7b10&#45;&gt;n0x55e42f6e7920</title>
<path fill="none" stroke="black" d="M404.83,-775.3C419.53,-772.53 437.71,-769.31 454.08,-767 484.1,-762.76 518.34,-759.31 543.48,-757.03"/>
<polygon fill="black" stroke="black" points="544.01,-760.5 553.66,-756.13 543.39,-753.53 544.01,-760.5"/>
<text text-anchor="middle" x="482.08" y="-770.8" font-family="Times,serif" font-size="14.00">number</text>
</g>
<!-- n0x55e42f6e7c90 -->
<g id="node20" class="node">
<title>n0x55e42f6e7c90</title>
<ellipse fill="none" stroke="black" cx="580.72" cy="-808" rx="27" ry="18"/>
<text text-anchor="middle" x="580.72" y="-804.3" font-family="Times,serif" font-size="14.00">4</text>
</g>
<!-- n0x55e42f6e7b10&#45;&gt;n0x55e42f6e7c90 -->
<g id="edge17" class="edge">
<title>n0x55e42f6e7b10&#45;&gt;n0x55e42f6e7c90</title>
<path fill="none" stroke="black" d="M405.61,-784.93C442.28,-789.79 504.69,-798.06 543.99,-803.26"/>
<polygon fill="black" stroke="black" points="543.56,-806.74 553.93,-804.58 544.48,-799.8 543.56,-806.74"/>
<text text-anchor="middle" x="482.08" y="-801.8" font-family="Times,serif" font-size="14.00">week</text>
</g>
<!-- n0x55e42f6e7990 -->
<g id="node22" class="node">
<title>n0x55e42f6e7990</title>
<ellipse fill="none" stroke="black" cx="580.72" cy="-868" rx="31.7" ry="18"/>
<text text-anchor="middle" x="580.72" y="-864.3" font-family="Times,serif" font-size="14.00">&quot;TP&quot;</text>
</g>
<!-- n0x55e42f6e7940&#45;&gt;n0x55e42f6e7990 -->
<g id="edge19" class="edge">
<title>n0x55e42f6e7940&#45;&gt;n0x55e42f6e7990</title>
<path fill="none" stroke="black" d="M404.83,-889.3C419.53,-886.53 437.71,-883.31 454.08,-881 482.39,-877 514.45,-873.71 539.1,-871.43"/>
<polygon fill="black" stroke="black" points="539.53,-874.91 549.18,-870.52 538.9,-867.94 539.53,-874.91"/>
<text text-anchor="middle" x="482.08" y="-884.8" font-family="Times,serif" font-size="14.00">kind</text>
</g>
<!-- n0x55e42f6e7740 -->
<g id="node23" class="node">
<title>n0x55e42f6e7740</title>
<ellipse fill="none" stroke="black" cx="580.72" cy="-922" rx="27" ry="18"/>
<text text-anchor="middle" x="580.72" y="-918.3" font-family="Times,serif" font-size="14.00">3</text>
</g>
<!-- n0x55e42f6e7940&#45;&gt;n0x55e42f6e7740 -->
<g id="edge20" class="edge">
<title>n0x55e42f6e7940&#45;&gt;n0x55e42f6e7740</title>
<path fill="none" stroke="black" d="M405.61,-898.93C442.28,-903.79 504.69,-912.06 543.99,-917.26"/>
<polygon fill="black" stroke="black" points="543.56,-920.74 553.93,-918.58 544.48,-913.8 543.56,-920.74"/>
<text text-anchor="middle" x="482.08" y="-915.8" font-family="Times,serif" font-size="14.00">number</text>
</g>
<!-- n0x55e42f6e7ac0 -->
<g id="node24" class="node">
<title>n0x55e42f6e7ac0</title>
<ellipse fill="none" stroke="black" cx="580.72" cy="-976" rx="27" ry="18"/>
<text text-anchor="middle" x="580.72" y="-972.3" font-family="Times,serif" font-size="14.00">3</text>
</g>
<!-- n0x55e42f6e7940&#45;&gt;n0x55e42f6e7ac0 -->
<g id="edge21" class="edge">
<title>n0x55e42f6e7940&#45;&gt;n0x55e42f6e7ac0</title>
<path fill="none" stroke="black" d="M399.32,-906.42C414.72,-913.78 435.42,-923.38 454.08,-931 484.94,-943.61 520.81,-956.26 546.3,-964.93"/>
<polygon fill="black" stroke="black" points="545.27,-968.27 555.87,-968.15 547.51,-961.64 545.27,-968.27"/>
<text text-anchor="middle" x="482.08" y="-954.8" font-family="Times,serif" font-size="14.00">week</text>
</g>
<!-- n0x55e42f6e77b0 -->
<g id="node26" class="node">
<title>n0x55e42f6e77b0</title>
<ellipse fill="none" stroke="black" cx="580.72" cy="-1036" rx="31.7" ry="18"/>
<text text-anchor="middle" x="580.72" y="-1032.3" font-family="Times,serif" font-size="14.00">&quot;TP&quot;</text>
</g>
<!-- n0x55e42f6e7760&#45;&gt;n0x55e42f6e77b0 -->
<g id="edge23" class="edge">
<title>n0x55e42f6e7760&#45;&gt;n0x55e42f6e77b0</title>
<path fill="none" stroke="black" d="M404.83,-1057.3C419.53,-1054.53 437.71,-1051.31 454.08,-1049 482.39,-1045 514.45,-1041.71 539.1,-1039.43"/>
<polygon fill="black" stroke="black" points="539.53,-1042.91 549.18,-1038.52 538.9,-1035.94 539.53,-1042.91"/>
<text text-anchor="middle" x="482.08" y="-1052.8" font-family="Times,serif" font-size="14.00">kind</text>
</g>
<!-- n0x55e42f6e7890 -->
<g id="node27" class="node">
<title>n0x55e42f6e7890</title>
<ellipse fill="none" stroke="black" cx="580.72" cy="-1090" rx="27" ry="18"/>
<text text-anchor="middle" x="580.72" y="-1086.3" font-family="Times,serif" font-size="14.00">2</text>
</g>
<!-- n0x55e42f6e7760&#45;&gt;n0x55e42f6e7890 -->
<g id="edge24" class="edge">
<title>n0x55e42f6e7760&#45;&gt;n0x55e42f6e7890</title>
<path fill="none" stroke="black" d="M405.61,-1066.93C442.28,-1071.79 504.69,-1080.06 543.99,-1085.26"/>
<polygon fill="black" stroke="black" points="543.56,-1088.74 553.93,-1086.58 544.48,-1081.8 543.56,-1088.74"/>
<text text-anchor="middle" x="482.08" y="-1083.8" font-family="Times,serif" font-size="14.00">number</text>
</g>
<!-- n0x55e42f6e7900 -->
<g id="node28" class="node">
<title>n0x55e42f6e7900</title>
<ellipse fill="none" stroke="black" cx="580.72" cy="-1144" rx="27" ry="18"/>
<text text-anchor="middle" x="580.72" y="-1140.3" font-family="Times,serif" font-size="14.00">2</text>
</g>
<!-- n0x55e42f6e7760&#45;&gt;n0x55e42f6e7900 -->
<g id="edge25" class="edge">
<title>n0x55e42f6e7760&#45;&gt;n0x55e42f6e7900</title>
<path fill="none" stroke="black" d="M399.32,-1074.42C414.72,-1081.78 435.42,-1091.38 454.08,-1099 484.94,-1111.61 520.81,-1124.26 546.3,-1132.93"/>
<polygon fill="black" stroke="black" points="545.27,-1136.27 555.87,-1136.15 547.51,-1129.64 545.27,-1136.27"/>
<text text-anchor="middle" x="482.08" y="-1122.8" font-family="Times,serif" font-size="14.00">week</text>
</g>
<!-- n0x55e42f6e75f0 -->
<g id="node30" class="node">
<title>n0x55e42f6e75f0</title>
<ellipse fill="none" stroke="black" cx="580.72" cy="-1204" rx="31.7" ry="18"/>
<text text-anchor="middle" x="580.72" y="-1200.3" font-family="Times,serif" font-size="14.00">&quot;TP&quot;</text>
</g>
<!-- n0x55e42f6e75a0&#45;&gt;n0x55e42f6e75f0 -->
<g id="edge27" class="edge">
<title>n0x55e42f6e75a0&#45;&gt;n0x55e42f6e75f0</title>
<path fill="none" stroke="black" d="M404.83,-1225.3C419.53,-1222.53 437.71,-1219.31 454.08,-1217 482.39,-1213 514.45,-1209.71 539.1,-1207.43"/>
<polygon fill="black" stroke="black" points="539.53,-1210.91 549.18,-1206.52 538.9,-1203.94 539.53,-1210.91"/>
<text text-anchor="middle" x="482.08" y="-1220.8" font-family="Times,serif" font-size="14.00">kind</text>
</g>
<!-- n0x55e42f6e73e0 -->
<g id="node31" class="node">
<title>n0x55e42f6e73e0</title>
<ellipse fill="none" stroke="black" cx="580.72" cy="-1258" rx="27" ry="18"/>
<text text-anchor="middle" x="580.72" y="-1254.3" font-family="Times,serif" font-size="14.00">1</text>
</g>
<!-- n0x55e42f6e75a0&#45;&gt;n0x55e42f6e73e0 -->
<g id="edge28" class="edge">
<title>n0x55e42f6e75a0&#45;&gt;n0x55e42f6e73e0</title>
<path fill="none" stroke="black" d="M405.61,-1234.93C442.28,-1239.79 504.69,-1248.06 543.99,-1253.26"/>
<polygon fill="black" stroke="black" points="543.56,-1256.74 553.93,-1254.58 544.48,-1249.8 543.56,-1256.74"/>
<text text-anchor="middle" x="482.08" y="-1251.8" font-family="Times,serif" font-size="14.00">number</text>
</g>
<!-- n0x55e42f6e7720 -->
<g id="node32" class="node">
<title>n0x55e42f6e7720</title>
<ellipse fill="none" stroke="black" cx="580.72" cy="-1312" rx="27" ry="18"/>
<text text-anchor="middle" x="580.72" y="-1308.3" font-family="Times,serif" font-size="14.00">1</text>
</g>
<!-- n0x55e42f6e75a0&#45;&gt;n0x55e42f6e7720 -->
<g id="edge29" class="edge">
<title>n0x55e42f6e75a0&#45;&gt;n0x55e42f6e7720</title>
<path fill="none" stroke="black" d="M399.32,-1242.42C414.72,-1249.78 435.42,-1259.38 454.08,-1267 484.94,-1279.61 520.81,-1292.26 546.3,-1300.93"/>
<polygon fill="black" stroke="black" points="545.27,-1304.27 555.87,-1304.15 547.51,-1297.64 545.27,-1304.27"/>
<text text-anchor="middle" x="482.08" y="-1290.8" font-family="Times,serif" font-size="14.00">week</text>
</g>
<!-- n0x55e42f6e7460 -->
<g id="node34" class="node">
<title>n0x55e42f6e7460</title>
<ellipse fill="none" stroke="black" cx="374.98" cy="-1380" rx="47.39" ry="18"/>
<text text-anchor="middle" x="374.98" y="-1376.3" font-family="Times,serif" font-size="14.00">&quot;Victor&quot;</text>
</g>
<!-- n0x55e42f6e7370&#45;&gt;n0x55e42f6e7460 -->
<g id="edge32" class="edge">
<title>n0x55e42f6e7370&#45;&gt;n0x55e42f6e7460</title>
<path fill="none" stroke="black" d="M260.69,-1402.11C277.97,-1398.74 301.54,-1394.14 322.72,-1390.01"/>
<polygon fill="black" stroke="black" points="323.42,-1393.43 332.56,-1388.08 322.08,-1386.56 323.42,-1393.43"/>
</g>
<!-- n0x55e42f6e7400 -->
<g id="node35" class="node">
<title>n0x55e42f6e7400</title>
<ellipse fill="none" stroke="black" cx="374.98" cy="-1434" rx="61.19" ry="18"/>
<text text-anchor="middle" x="374.98" y="-1430.3" font-family="Times,serif" font-size="14.00">&quot;Matthias&quot;</text>
</g>
<!-- n0x55e42f6e7370&#45;&gt;n0x55e42f6e7400 -->
<g id="edge33" class="edge">
<title>n0x55e42f6e7370&#45;&gt;n0x55e42f6e7400</title>
<path fill="none" stroke="black" d="M260.69,-1411.89C275.54,-1414.79 295.05,-1418.59 313.68,-1422.23"/>
<polygon fill="black" stroke="black" points="313.13,-1425.69 323.61,-1424.17 314.47,-1418.82 313.13,-1425.69"/>
</g>
<!-- n0x55e42f6e73a0 -->
<g id="node36" class="node">
<title>n0x55e42f6e73a0</title>
<ellipse fill="none" stroke="black" cx="374.98" cy="-1488" rx="48.99" ry="18"/>
<text text-anchor="middle" x="374.98" y="-1484.3" font-family="Times,serif" font-size="14.00">&quot;Céline&quot;</text>
</g>
<!-- n0x55e42f6e7370&#45;&gt;n0x55e42f6e73a0 -->
<g id="edge34" class="edge">
<title>n0x55e42f6e7370&#45;&gt;n0x55e42f6e73a0</title>
<path fill="none" stroke="black" d="M257.16,-1417.32C263.67,-1420.75 270.73,-1424.77 276.89,-1429 294.81,-1441.3 295.56,-1449.31 313.89,-1461 319.33,-1464.47 325.29,-1467.72 331.28,-1470.69"/>
<polygon fill="black" stroke="black" points="330.11,-1474 340.65,-1475.09 333.09,-1467.67 330.11,-1474"/>
</g>
</g>
</svg>
